ply
format ascii 1.0
element vertex 561
property float x
property float y
property float z
property float u
property float v
property float nx
property float ny
property float nz
element face 960
property list uchar int vertex_indices
end_header
0 -10 1.22465e-15 0 1 0 -1 1.22465e-16
2.38917e-16 -10 1.20112e-15 0.03125 1 2.38917e-17 -1 1.20112e-16
4.68652e-16 -10 1.13143e-15 0.0625 1 4.68652e-17 -1 1.13143e-16
6.80377e-16 -10 1.01826e-15 0.09375 1 6.80377e-17 -1 1.01826e-16
8.65956e-16 -10 8.65956e-16 0.125 1 8.65956e-17 -1 8.65956e-17
1.01826e-15 -10 6.80377e-16 0.15625 1 1.01826e-16 -1 6.80377e-17
1.13143e-15 -10 4.68652e-16 0.1875 1 1.13143e-16 -1 4.68652e-17
1.20112e-15 -10 2.38917e-16 0.21875 1 1.20112e-16 -1 2.38917e-17
1.22465e-15 -10 -5.3531e-23 0.25 1 1.22465e-16 -1 -5.3531e-24
1.20112e-15 -10 -2.38917e-16 0.28125 1 1.20112e-16 -1 -2.38917e-17
1.13143e-15 -10 -4.68652e-16 0.3125 1 1.13143e-16 -1 -4.68652e-17
1.01826e-15 -10 -6.80378e-16 0.34375 1 1.01826e-16 -1 -6.80377e-17
8.65956e-16 -10 -8.65956e-16 0.375 1 8.65956e-17 -1 -8.65956e-17
6.80377e-16 -10 -1.01826e-15 0.40625 1 6.80377e-17 -1 -1.01826e-16
4.68652e-16 -10 -1.13143e-15 0.4375 1 4.68652e-17 -1 -1.13143e-16
2.38917e-16 -10 -1.20112e-15 0.46875 1 2.38917e-17 -1 -1.20112e-16
-1.07062e-22 -10 -1.22465e-15 0.5 1 -1.07062e-23 -1 -1.22465e-16
-2.38917e-16 -10 -1.20112e-15 0.53125 1 -2.38917e-17 -1 -1.20112e-16
-4.68652e-16 -10 -1.13143e-15 0.5625 1 -4.68652e-17 -1 -1.13143e-16
-6.80377e-16 -10 -1.01826e-15 0.59375 1 -6.80377e-17 -1 -1.01826e-16
-8.65956e-16 -10 -8.65956e-16 0.625 1 -8.65956e-17 -1 -8.65956e-17
-1.01826e-15 -10 -6.80377e-16 0.65625 1 -1.01826e-16 -1 -6.80377e-17
-1.13143e-15 -10 -4.68652e-16 0.6875 1 -1.13143e-16 -1 -4.68652e-17
-1.20112e-15 -10 -2.38917e-16 0.71875 1 -1.20112e-16 -1 -2.38917e-17
-1.22465e-15 -10 1.46038e-23 0.75 1 -1.22465e-16 -1 1.46038e-24
-1.20112e-15 -10 2.38917e-16 0.78125 1 -1.20112e-16 -1 2.38917e-17
-1.13143e-15 -10 4.68652e-16 0.8125 1 -1.13143e-16 -1 4.68652e-17
-1.01826e-15 -10 6.80378e-16 0.84375 1 -1.01826e-16 -1 6.80378e-17
-8.65956e-16 -10 8.65956e-16 0.875 1 -8.65956e-17 -1 8.65956e-17
-6.80377e-16 -10 1.01826e-15 0.90625 1 -6.80377e-17 -1 1.01826e-16
-4.68652e-16 -10 1.13143e-15 0.9375 1 -4.68652e-17 -1 1.13143e-16
-2.38917e-16 -10 1.20112e-15 0.96875 1 -2.38917e-17 -1 1.20112e-16
2.14124e-22 -10 1.22465e-15 1 1 2.14124e-23 -1 1.22465e-16
0 -9.80785 1.9509 0 0.9375 0 -0.980785 0.19509
0.380602 -9.80785 1.91342 0.03125 0.9375 0.0380602 -0.980785 0.191342
0.746578 -9.80785 1.8024 0.0625 0.9375 0.0746578 -0.980785 0.18024
1.08386 -9.80785 1.62212 0.09375 0.9375 0.108386 -0.980785 0.162212
1.3795 -9.80785 1.3795 0.125 0.9375 0.13795 -0.980785 0.13795
1.62212 -9.80785 1.08386 0.15625 0.9375 0.162212 -0.980785 0.108386
1.8024 -9.80785 0.746578 0.1875 0.9375 0.18024 -0.980785 0.0746578
1.91342 -9.80785 0.380602 0.21875 0.9375 0.191342 -0.980785 0.0380602
1.9509 -9.80785 -8.52767e-08 0.25 0.9375 0.19509 -0.980785 -8.52767e-09
1.91342 -9.80785 -0.380602 0.28125 0.9375 0.191342 -0.980785 -0.0380602
1.8024 -9.80785 -0.746579 0.3125 0.9375 0.18024 -0.980785 -0.0746578
1.62212 -9.80785 -1.08386 0.34375 0.9375 0.162212 -0.980785 -0.108386
1.3795 -9.80785 -1.3795 0.375 0.9375 0.13795 -0.980785 -0.13795
1.08386 -9.80785 -1.62212 0.40625 0.9375 0.108386 -0.980785 -0.162212
0.746578 -9.80785 -1.8024 0.4375 0.9375 0.0746578 -0.980785 -0.18024
0.380602 -9.80785 -1.91342 0.46875 0.9375 0.0380602 -0.980785 -0.191342
-1.70553e-07 -9.80785 -1.9509 0.5 0.9375 -1.70553e-08 -0.980785 -0.19509
-0.380603 -9.80785 -1.91342 0.53125 0.9375 -0.0380603 -0.980785 -0.191342
-0.746578 -9.80785 -1.8024 0.5625 0.9375 -0.0746578 -0.980785 -0.18024
-1.08386 -9.80785 -1.62212 0.59375 0.9375 -0.108386 -0.980785 -0.162212
-1.3795 -9.80785 -1.3795 0.625 0.9375 -0.13795 -0.980785 -0.13795
-1.62212 -9.80785 -1.08386 0.65625 0.9375 -0.162212 -0.980785 -0.108386
-1.8024 -9.80785 -0.746578 0.6875 0.9375 -0.18024 -0.980785 -0.0746578
-1.91342 -9.80785 -0.380602 0.71875 0.9375 -0.191342 -0.980785 -0.0380602
-1.9509 -9.80785 2.32643e-08 0.75 0.9375 -0.19509 -0.980785 2.32643e-09
-1.91342 -9.80785 0.380603 0.78125 0.9375 -0.191342 -0.980785 0.0380603
-1.8024 -9.80785 0.746579 0.8125 0.9375 -0.18024 -0.980785 0.0746579
-1.62212 -9.80785 1.08386 0.84375 0.9375 -0.162212 -0.980785 0.108386
-1.3795 -9.80785 1.3795 0.875 0.9375 -0.13795 -0.980785 0.13795
-1.08386 -9.80785 1.62212 0.90625 0.9375 -0.108386 -0.980785 0.162212
-0.746578 -9.80785 1.8024 0.9375 0.9375 -0.0746578 -0.980785 0.18024
-0.380602 -9.80785 1.91342 0.96875 0.9375 -0.0380602 -0.980785 0.191342
3.41107e-07 -9.80785 1.9509 1 0.9375 3.41107e-08 -0.980785 0.19509
0 -9.2388 3.82683 0 0.875 0 -0.92388 0.382683
0.746578 -9.2388 3.7533 0.03125 0.875 0.0746578 -0.92388 0.37533
1.46447 -9.2388 3.53553 0.0625 0.875 0.146447 -0.92388 0.353553
2.12608 -9.2388 3.1819 0.09375 0.875 0.212608 -0.92388 0.31819
2.70598 -9.2388 2.70598 0.125 0.875 0.270598 -0.92388 0.270598
3.1819 -9.2388 2.12608 0.15625 0.875 0.31819 -0.92388 0.212608
3.53553 -9.2388 1.46447 0.1875 0.875 0.353553 -0.92388 0.146447
3.7533 -9.2388 0.746578 0.21875 0.875 0.37533 -0.92388 0.0746578
3.82683 -9.2388 -1.67276e-07 0.25 0.875 0.382683 -0.92388 -1.67276e-08
3.7533 -9.2388 -0.746578 0.28125 0.875 0.37533 -0.92388 -0.0746578
3.53553 -9.2388 -1.46447 0.3125 0.875 0.353553 -0.92388 -0.146447
3.1819 -9.2388 -2.12608 0.34375 0.875 0.31819 -0.92388 -0.212608
2.70598 -9.2388 -2.70598 0.375 0.875 0.270598 -0.92388 -0.270598
2.12608 -9.2388 -3.1819 0.40625 0.875 0.212608 -0.92388 -0.31819
1.46447 -9.2388 -3.53553 0.4375 0.875 0.146447 -0.92388 -0.353553
0.746578 -9.2388 -3.7533 0.46875 0.875 0.0746578 -0.92388 -0.37533
-3.34553e-07 -9.2388 -3.82683 0.5 0.875 -3.34553e-08 -0.92388 -0.382683
-0.746579 -9.2388 -3.7533 0.53125 0.875 -0.0746579 -0.92388 -0.37533
-1.46447 -9.2388 -3.53553 0.5625 0.875 -0.146447 -0.92388 -0.353553
-2.12608 -9.2388 -3.1819 0.59375 0.875 -0.212608 -0.92388 -0.31819
-2.70598 -9.2388 -2.70598 0.625 0.875 -0.270598 -0.92388 -0.270598
-3.1819 -9.2388 -2.12607 0.65625 0.875 -0.31819 -0.92388 -0.212607
-3.53553 -9.2388 -1.46446 0.6875 0.875 -0.353553 -0.92388 -0.146446
-3.7533 -9.2388 -0.746579 0.71875 0.875 -0.37533 -0.92388 -0.0746579
-3.82683 -9.2388 4.56345e-08 0.75 0.875 -0.382683 -0.92388 4.56345e-09
-3.7533 -9.2388 0.746579 0.78125 0.875 -0.37533 -0.92388 0.0746579
-3.53553 -9.2388 1.46447 0.8125 0.875 -0.353553 -0.92388 0.146447
-3.1819 -9.2388 2.12608 0.84375 0.875 -0.31819 -0.92388 0.212608
-2.70598 -9.2388 2.70598 0.875 0.875 -0.270598 -0.92388 0.270598
-2.12608 -9.2388 3.1819 0.90625 0.875 -0.212608 -0.92388 0.31819
-1.46447 -9.2388 3.53553 0.9375 0.875 -0.146447 -0.92388 0.353553
-0.746578 -9.2388 3.7533 0.96875 0.875 -0.0746578 -0.92388 0.37533
6.69105e-07 -9.2388 3.82683 1 0.875 6.69105e-08 -0.92388 0.382683
0 -8.3147 5.5557 0 0.8125 0 -0.83147 0.55557
1.08386 -8.3147 5.44895 0.03125 0.8125 0.108386 -0.83147 0.544895
2.12608 -8.3147 5.1328 0.0625 0.8125 0.212608 -0.83147 0.51328
3.08658 -8.3147 4.6194 0.09375 0.8125 0.308658 -0.83147 0.46194
3.92847 -8.3147 3.92847 0.125 0.8125 0.392847 -0.83147 0.392847
4.6194 -8.3147 3.08658 0.15625 0.8125 0.46194 -0.83147 0.308658
5.1328 -8.3147 2.12608 0.1875 0.8125 0.51328 -0.83147 0.212608
5.44895 -8.3147 1.08386 0.21875 0.8125 0.544895 -0.83147 0.108386
5.5557 -8.3147 -2.42847e-07 0.25 0.8125 0.55557 -0.83147 -2.42847e-08
5.44895 -8.3147 -1.08386 0.28125 0.8125 0.544895 -0.83147 -0.108386
5.1328 -8.3147 -2.12608 0.3125 0.8125 0.51328 -0.83147 -0.212608
4.6194 -8.3147 -3.08658 0.34375 0.8125 0.46194 -0.83147 -0.308658
3.92847 -8.3147 -3.92847 0.375 0.8125 0.392847 -0.83147 -0.392847
3.08658 -8.3147 -4.6194 0.40625 0.8125 0.308658 -0.83147 -0.46194
2.12607 -8.3147 -5.1328 0.4375 0.8125 0.212607 -0.83147 -0.51328
1.08386 -8.3147 -5.44895 0.46875 0.8125 0.108386 -0.83147 -0.544895
-4.85695e-07 -8.3147 -5.5557 0.5 0.8125 -4.85695e-08 -0.83147 -0.55557
-1.08386 -8.3147 -5.44895 0.53125 0.8125 -0.108386 -0.83147 -0.544895
-2.12608 -8.3147 -5.1328 0.5625 0.8125 -0.212608 -0.83147 -0.51328
-3.08658 -8.3147 -4.6194 0.59375 0.8125 -0.308658 -0.83147 -0.46194
-3.92848 -8.3147 -3.92847 0.625 0.8125 -0.392848 -0.83147 -0.392847
-4.6194 -8.3147 -3.08658 0.65625 0.8125 -0.46194 -0.83147 -0.308658
-5.1328 -8.3147 -2.12607 0.6875 0.8125 -0.51328 -0.83147 -0.212607
-5.44895 -8.3147 -1.08386 0.71875 0.8125 -0.544895 -0.83147 -0.108386
-5.5557 -8.3147 6.62511e-08 0.75 0.8125 -0.55557 -0.83147 6.62511e-09
-5.44895 -8.3147 1.08386 0.78125 0.8125 -0.544895 -0.83147 0.108386
-5.1328 -8.3147 2.12608 0.8125 0.8125 -0.51328 -0.83147 0.212608
-4.6194 -8.3147 3.08658 0.84375 0.8125 -0.46194 -0.83147 0.308658
-3.92847 -8.3147 3.92848 0.875 0.8125 -0.392847 -0.83147 0.392848
-3.08658 -8.3147 4.6194 0.90625 0.8125 -0.308658 -0.83147 0.46194
-2.12608 -8.3147 5.1328 0.9375 0.8125 -0.212608 -0.83147 0.51328
-1.08386 -8.3147 5.44895 0.96875 0.8125 -0.108386 -0.83147 0.544895
9.7139e-07 -8.3147 5.5557 1 0.8125 9.7139e-08 -0.83147 0.55557
0 -7.07107 7.07107 0 0.75 0 -0.707107 0.707107
1.3795 -7.07107 6.9352 0.03125 0.75 0.13795 -0.707107 0.69352
2.70598 -7.07107 6.53281 0.0625 0.75 0.270598 -0.707107 0.653281
3.92847 -7.07107 5.87938 0.09375 0.75 0.392847 -0.707107 0.587938
5 -7.07107 5 0.125 0.75 0.5 -0.707107 0.5
5.87938 -7.07107 3.92847 0.15625 0.75 0.587938 -0.707107 0.392847
6.53281 -7.07107 2.70598 0.1875 0.75 0.653281 -0.707107 0.270598
6.9352 -7.07107 1.3795 0.21875 0.75 0.69352 -0.707107 0.13795
7.07107 -7.07107 -3.09086e-07 0.25 0.75 0.707107 -0.707107 -3.09086e-08
6.9352 -7.07107 -1.3795 0.28125 0.75 0.69352 -0.707107 -0.13795
6.53281 -7.07107 -2.70598 0.3125 0.75 0.653281 -0.707107 -0.270598
5.87938 -7.07107 -3.92848 0.34375 0.75 0.587938 -0.707107 -0.392848
5 -7.07107 -5 0.375 0.75 0.5 -0.707107 -0.5
3.92847 -7.07107 -5.87938 0.40625 0.75 0.392847 -0.707107 -0.587938
2.70598 -7.07107 -6.53281 0.4375 0.75 0.270598 -0.707107 -0.653282
1.3795 -7.07107 -6.9352 0.46875 0.75 0.13795 -0.707107 -0.69352
-6.18172e-07 -7.07107 -7.07107 0.5 0.75 -6.18172e-08 -0.707107 -0.707107
-1.3795 -7.07107 -6.9352 0.53125 0.75 -0.13795 -0.707107 -0.69352
-2.70598 -7.07107 -6.53281 0.5625 0.75 -0.270598 -0.707107 -0.653281
-3.92848 -7.07107 -5.87938 0.59375 0.75 -0.392848 -0.707107 -0.587938
-5 -7.07107 -5 0.625 0.75 -0.5 -0.707107 -0.5
-5.87938 -7.07107 -3.92847 0.65625 0.75 -0.587938 -0.707107 -0.392847
-6.53282 -7.07107 -2.70598 0.6875 0.75 -0.653282 -0.707107 -0.270598
-6.9352 -7.07107 -1.3795 0.71875 0.75 -0.69352 -0.707107 -0.13795
-7.07107 -7.07107 8.43216e-08 0.75 0.75 -0.707107 -0.707107 8.43216e-09
-6.9352 -7.07107 1.3795 0.78125 0.75 -0.69352 -0.707107 0.13795
-6.53281 -7.07107 2.70598 0.8125 0.75 -0.653281 -0.707107 0.270598
-5.87938 -7.07107 3.92848 0.84375 0.75 -0.587938 -0.707107 0.392848
-5 -7.07107 5 0.875 0.75 -0.5 -0.707107 0.5
-3.92848 -7.07107 5.87938 0.90625 0.75 -0.392848 -0.707107 0.587938
-2.70598 -7.07107 6.53281 0.9375 0.75 -0.270598 -0.707107 0.653282
-1.3795 -7.07107 6.9352 0.96875 0.75 -0.13795 -0.707107 0.69352
1.23634e-06 -7.07107 7.07107 1 0.75 1.23634e-07 -0.707107 0.707107
0 -5.5557 8.3147 0 0.6875 0 -0.55557 0.83147
1.62212 -5.5557 8.15493 0.03125 0.6875 0.162212 -0.55557 0.815493
3.1819 -5.5557 7.68178 0.0625 0.6875 0.31819 -0.55557 0.768178
4.6194 -5.5557 6.91342 0.09375 0.6875 0.46194 -0.55557 0.691342
5.87938 -5.5557 5.87938 0.125 0.6875 0.587938 -0.55557 0.587938
6.91342 -5.5557 4.6194 0.15625 0.6875 0.691342 -0.55557 0.46194
7.68178 -5.5557 3.1819 0.1875 0.6875 0.768178 -0.55557 0.31819
8.15493 -5.5557 1.62212 0.21875 0.6875 0.815493 -0.55557 0.162212
8.3147 -5.5557 -3.63447e-07 0.25 0.6875 0.83147 -0.55557 -3.63447e-08
8.15493 -5.5557 -1.62212 0.28125 0.6875 0.815493 -0.55557 -0.162212
7.68178 -5.5557 -3.1819 0.3125 0.6875 0.768178 -0.55557 -0.31819
6.91342 -5.5557 -4.6194 0.34375 0.6875 0.691342 -0.55557 -0.46194
5.87938 -5.5557 -5.87938 0.375 0.6875 0.587938 -0.55557 -0.587938
4.6194 -5.5557 -6.91342 0.40625 0.6875 0.46194 -0.55557 -0.691342
3.1819 -5.5557 -7.68178 0.4375 0.6875 0.31819 -0.55557 -0.768178
1.62212 -5.5557 -8.15493 0.46875 0.6875 0.162212 -0.55557 -0.815493
-7.26894e-07 -5.5557 -8.3147 0.5 0.6875 -7.26894e-08 -0.55557 -0.83147
-1.62212 -5.5557 -8.15493 0.53125 0.6875 -0.162212 -0.55557 -0.815493
-3.1819 -5.5557 -7.68178 0.5625 0.6875 -0.31819 -0.55557 -0.768178
-4.6194 -5.5557 -6.91342 0.59375 0.6875 -0.46194 -0.55557 -0.691342
-5.87938 -5.5557 -5.87938 0.625 0.6875 -0.587938 -0.55557 -0.587938
-6.91342 -5.5557 -4.6194 0.65625 0.6875 -0.691342 -0.55557 -0.46194
-7.68178 -5.5557 -3.18189 0.6875 0.6875 -0.768178 -0.55557 -0.318189
-8.15493 -5.5557 -1.62212 0.71875 0.6875 -0.815493 -0.55557 -0.162212
-8.3147 -5.5557 9.91518e-08 0.75 0.6875 -0.83147 -0.55557 9.91518e-09
-8.15493 -5.5557 1.62212 0.78125 0.6875 -0.815493 -0.55557 0.162212
-7.68178 -5.5557 3.1819 0.8125 0.6875 -0.768178 -0.55557 0.31819
-6.91342 -5.5557 4.6194 0.84375 0.6875 -0.691342 -0.55557 0.46194
-5.87938 -5.5557 5.87938 0.875 0.6875 -0.587938 -0.55557 0.587938
-4.6194 -5.5557 6.91342 0.90625 0.6875 -0.46194 -0.55557 0.691342
-3.1819 -5.5557 7.68178 0.9375 0.6875 -0.31819 -0.55557 0.768178
-1.62212 -5.5557 8.15493 0.96875 0.6875 -0.162212 -0.55557 0.815493
1.45379e-06 -5.5557 8.3147 1 0.6875 1.45379e-07 -0.55557 0.83147
0 -3.82683 9.2388 0 0.625 0 -0.382683 0.92388
1.8024 -3.82683 9.06127 0.03125 0.625 0.18024 -0.382683 0.906127
3.53553 -3.82683 8.53553 0.0625 0.625 0.353553 -0.382683 0.853553
5.1328 -3.82683 7.68178 0.09375 0.625 0.51328 -0.382683 0.768178
6.53281 -3.82683 6.53281 0.125 0.625 0.653281 -0.382683 0.653281
7.68178 -3.82683 5.1328 0.15625 0.625 0.768178 -0.382683 0.51328
8.53553 -3.82683 3.53553 0.1875 0.625 0.853553 -0.382683 0.353553
9.06127 -3.82683 1.8024 0.21875 0.625 0.906127 -0.382683 0.18024
9.2388 -3.82683 -4.03841e-07 0.25 0.625 0.92388 -0.382683 -4.03841e-08
9.06127 -3.82683 -1.8024 0.28125 0.625 0.906127 -0.382683 -0.18024
8.53553 -3.82683 -3.53553 0.3125 0.625 0.853553 -0.382683 -0.353553
7.68178 -3.82683 -5.1328 0.34375 0.625 0.768178 -0.382683 -0.51328
6.53281 -3.82683 -6.53281 0.375 0.625 0.653281 -0.382683 -0.653281
5.1328 -3.82683 -7.68178 0.40625 0.625 0.51328 -0.382683 -0.768178
3.53553 -3.82683 -8.53553 0.4375 0.625 0.353553 -0.382683 -0.853553
1.8024 -3.82683 -9.06127 0.46875 0.625 0.18024 -0.382683 -0.906127
-8.07681e-07 -3.82683 -9.2388 0.5 0.625 -8.07681e-08 -0.382683 -0.92388
-1.8024 -3.82683 -9.06127 0.53125 0.625 -0.18024 -0.382683 -0.906127
-3.53553 -3.82683 -8.53553 0.5625 0.625 -0.353553 -0.382683 -0.853553
-5.1328 -3.82683 -7.68178 0.59375 0.625 -0.51328 -0.382683 -0.768178
-6.53282 -3.82683 -6.53281 0.625 0.625 -0.653282 -0.382683 -0.653281
-7.68178 -3.82683 -5.1328 0.65625 0.625 -0.768178 -0.382683 -0.51328
-8.53553 -3.82683 -3.53553 0.6875 0.625 -0.853553 -0.382683 -0.353553
-9.06127 -3.82683 -1.8024 0.71875 0.625 -0.906127 -0.382683 -0.18024
-9.2388 -3.82683 1.10172e-07 0.75 0.625 -0.92388 -0.382683 1.10172e-08
-9.06127 -3.82683 1.8024 0.78125 0.625 -0.906127 -0.382683 0.18024
-8.53553 -3.82683 3.53554 0.8125 0.625 -0.853553 -0.382683 0.353554
-7.68178 -3.82683 5.1328 0.84375 0.625 -0.768178 -0.382683 0.51328
-6.53281 -3.82683 6.53282 0.875 0.625 -0.653281 -0.382683 0.653282
-5.1328 -3.82683 7.68178 0.90625 0.625 -0.51328 -0.382683 0.768178
-3.53553 -3.82683 8.53553 0.9375 0.625 -0.353553 -0.382683 0.853553
-1.8024 -3.82683 9.06127 0.96875 0.625 -0.18024 -0.382683 0.906127
1.61536e-06 -3.82683 9.2388 1 0.625 1.61536e-07 -0.382683 0.92388
0 -1.9509 9.80785 0 0.5625 0 -0.19509 0.980785
1.91342 -1.9509 9.6194 0.03125 0.5625 0.191342 -0.19509 0.96194
3.7533 -1.9509 9.06127 0.0625 0.5625 0.37533 -0.19509 0.906127
5.44895 -1.9509 8.15493 0.09375 0.5625 0.544895 -0.19509 0.815493
6.9352 -1.9509 6.9352 0.125 0.5625 0.69352 -0.19509 0.69352
8.15493 -1.9509 5.44895 0.15625 0.5625 0.815493 -0.19509 0.544895
9.06127 -1.9509 3.7533 0.1875 0.5625 0.906127 -0.19509 0.37533
9.6194 -1.9509 1.91342 0.21875 0.5625 0.96194 -0.19509 0.191342
9.80785 -1.9509 -4.28715e-07 0.25 0.5625 0.980785 -0.19509 -4.28715e-08
9.6194 -1.9509 -1.91342 0.28125 0.5625 0.96194 -0.19509 -0.191342
9.06127 -1.9509 -3.7533 0.3125 0.5625 0.906127 -0.19509 -0.37533
8.15493 -1.9509 -5.44895 0.34375 0.5625 0.815493 -0.19509 -0.544895
6.9352 -1.9509 -6.9352 0.375 0.5625 0.69352 -0.19509 -0.69352
5.44895 -1.9509 -8.15493 0.40625 0.5625 0.544895 -0.19509 -0.815493
3.7533 -1.9509 -9.06128 0.4375 0.5625 0.37533 -0.19509 -0.906128
1.91342 -1.9509 -9.6194 0.46875 0.5625 0.191342 -0.19509 -0.96194
-8.5743e-07 -1.9509 -9.80785 0.5 0.5625 -8.5743e-08 -0.19509 -0.980785
-1.91342 -1.9509 -9.6194 0.53125 0.5625 -0.191342 -0.19509 -0.96194
-3.7533 -1.9509 -9.06127 0.5625 0.5625 -0.37533 -0.19509 -0.906127
-5.44895 -1.9509 -8.15493 0.59375 0.5625 -0.544895 -0.19509 -0.815493
-6.9352 -1.9509 -6.9352 0.625 0.5625 -0.69352 -0.19509 -0.69352
-8.15493 -1.9509 -5.44895 0.65625 0.5625 -0.815493 -0.19509 -0.544895
-9.06128 -1.9509 -3.7533 0.6875 0.5625 -0.906128 -0.19509 -0.37533
-9.6194 -1.9509 -1.91342 0.71875 0.5625 -0.96194 -0.19509 -0.191342
-9.80785 -1.9509 1.16957e-07 0.75 0.5625 -0.980785 -0.19509 1.16957e-08
-9.6194 -1.9509 1.91342 0.78125 0.5625 -0.96194 -0.19509 0.191342
-9.06127 -1.9509 3.7533 0.8125 0.5625 -0.906127 -0.19509 0.37533
-8.15493 -1.9509 5.44895 0.84375 0.5625 -0.815493 -0.19509 0.544895
-6.9352 -1.9509 6.9352 0.875 0.5625 -0.69352 -0.19509 0.69352
-5.44895 -1.9509 8.15493 0.90625 0.5625 -0.544895 -0.19509 0.815493
-3.7533 -1.9509 9.06128 0.9375 0.5625 -0.37533 -0.19509 0.906128
-1.91342 -1.9509 9.6194 0.96875 0.5625 -0.191342 -0.19509 0.96194
1.71486e-06 -1.9509 9.80785 1 0.5625 1.71486e-07 -0.19509 0.980785
0 4.37114e-07 10 0 0.5 0 4.37114e-08 1
1.9509 4.37114e-07 9.80785 0.03125 0.5 0.19509 4.37114e-08 0.980785
3.82683 4.37114e-07 9.2388 0.0625 0.5 0.382683 4.37114e-08 0.92388
5.5557 4.37114e-07 8.3147 0.09375 0.5 0.55557 4.37114e-08 0.83147
7.07107 4.37114e-07 7.07107 0.125 0.5 0.707107 4.37114e-08 0.707107
8.3147 4.37114e-07 5.5557 0.15625 0.5 0.83147 4.37114e-08 0.55557
9.2388 4.37114e-07 3.82683 0.1875 0.5 0.92388 4.37114e-08 0.382683
9.80785 4.37114e-07 1.9509 0.21875 0.5 0.980785 4.37114e-08 0.19509
10 4.37114e-07 -4.37114e-07 0.25 0.5 1 4.37114e-08 -4.37114e-08
9.80785 4.37114e-07 -1.9509 0.28125 0.5 0.980785 4.37114e-08 -0.19509
9.2388 4.37114e-07 -3.82684 0.3125 0.5 0.92388 4.37114e-08 -0.382684
8.3147 4.37114e-07 -5.5557 0.34375 0.5 0.83147 4.37114e-08 -0.55557
7.07107 4.37114e-07 -7.07107 0.375 0.5 0.707107 4.37114e-08 -0.707107
5.5557 4.37114e-07 -8.3147 0.40625 0.5 0.55557 4.37114e-08 -0.83147
3.82683 4.37114e-07 -9.2388 0.4375 0.5 0.382683 4.37114e-08 -0.92388
1.9509 4.37114e-07 -9.80785 0.46875 0.5 0.19509 4.37114e-08 -0.980785
-8.74228e-07 4.37114e-07 -10 0.5 0.5 -8.74228e-08 4.37114e-08 -1
-1.9509 4.37114e-07 -9.80785 0.53125 0.5 -0.19509 4.37114e-08 -0.980785
-3.82683 4.37114e-07 -9.2388 0.5625 0.5 -0.382683 4.37114e-08 -0.92388
-5.5557 4.37114e-07 -8.3147 0.59375 0.5 -0.55557 4.37114e-08 -0.83147
-7.07107 4.37114e-07 -7.07107 0.625 0.5 -0.707107 4.37114e-08 -0.707107
-8.3147 4.37114e-07 -5.5557 0.65625 0.5 -0.83147 4.37114e-08 -0.55557
-9.2388 4.37114e-07 -3.82683 0.6875 0.5 -0.92388 4.37114e-08 -0.382683
-9.80785 4.37114e-07 -1.9509 0.71875 0.5 -0.980785 4.37114e-08 -0.19509
-10 4.37114e-07 1.19249e-07 0.75 0.5 -1 4.37114e-08 1.19249e-08
-9.80785 4.37114e-07 1.9509 0.78125 0.5 -0.980785 4.37114e-08 0.19509
-9.23879 4.37114e-07 3.82684 0.8125 0.5 -0.923879 4.37114e-08 0.382684
-8.31469 4.37114e-07 5.5557 0.84375 0.5 -0.831469 4.37114e-08 0.55557
-7.07107 4.37114e-07 7.07107 0.875 0.5 -0.707107 4.37114e-08 0.707107
-5.5557 4.37114e-07 8.3147 0.90625 0.5 -0.55557 4.37114e-08 0.83147
-3.82683 4.37114e-07 9.2388 0.9375 0.5 -0.382683 4.37114e-08 0.92388
-1.9509 4.37114e-07 9.80785 0.96875 0.5 -0.19509 4.37114e-08 0.980785
1.74846e-06 4.37114e-07 10 1 0.5 1.74846e-07 4.37114e-08 1
0 1.9509 9.80785 0 0.4375 0 0.19509 0.980785
1.91342 1.9509 9.6194 0.03125 0.4375 0.191342 0.19509 0.96194
3.7533 1.9509 9.06127 0.0625 0.4375 0.37533 0.19509 0.906127
5.44895 1.9509 8.15493 0.09375 0.4375 0.544895 0.19509 0.815493
6.9352 1.9509 6.9352 0.125 0.4375 0.69352 0.19509 0.69352
8.15493 1.9509 5.44895 0.15625 0.4375 0.815493 0.19509 0.544895
9.06127 1.9509 3.7533 0.1875 0.4375 0.906127 0.19509 0.37533
9.6194 1.9509 1.91342 0.21875 0.4375 0.96194 0.19509 0.191342
9.80785 1.9509 -4.28715e-07 0.25 0.4375 0.980785 0.19509 -4.28715e-08
9.6194 1.9509 -1.91342 0.28125 0.4375 0.96194 0.19509 -0.191342
9.06127 1.9509 -3.7533 0.3125 0.4375 0.906127 0.19509 -0.37533
8.15493 1.9509 -5.44895 0.34375 0.4375 0.815493 0.19509 -0.544895
6.9352 1.9509 -6.9352 0.375 0.4375 0.69352 0.19509 -0.69352
5.44895 1.9509 -8.15493 0.40625 0.4375 0.544895 0.19509 -0.815493
3.7533 1.9509 -9.06128 0.4375 0.4375 0.37533 0.19509 -0.906128
1.91342 1.9509 -9.6194 0.46875 0.4375 0.191342 0.19509 -0.96194
-8.5743e-07 1.9509 -9.80785 0.5 0.4375 -8.5743e-08 0.19509 -0.980785
-1.91342 1.9509 -9.6194 0.53125 0.4375 -0.191342 0.19509 -0.96194
-3.7533 1.9509 -9.06127 0.5625 0.4375 -0.37533 0.19509 -0.906127
-5.44895 1.9509 -8.15493 0.59375 0.4375 -0.544895 0.19509 -0.815493
-6.9352 1.9509 -6.9352 0.625 0.4375 -0.69352 0.19509 -0.69352
-8.15493 1.9509 -5.44895 0.65625 0.4375 -0.815493 0.19509 -0.544895
-9.06128 1.9509 -3.7533 0.6875 0.4375 -0.906128 0.19509 -0.37533
-9.6194 1.9509 -1.91342 0.71875 0.4375 -0.96194 0.19509 -0.191342
-9.80785 1.9509 1.16957e-07 0.75 0.4375 -0.980785 0.19509 1.16957e-08
-9.6194 1.9509 1.91342 0.78125 0.4375 -0.96194 0.19509 0.191342
-9.06127 1.9509 3.7533 0.8125 0.4375 -0.906127 0.19509 0.37533
-8.15493 1.9509 5.44895 0.84375 0.4375 -0.815493 0.19509 0.544895
-6.9352 1.9509 6.9352 0.875 0.4375 -0.69352 0.19509 0.69352
-5.44895 1.9509 8.15493 0.90625 0.4375 -0.544895 0.19509 0.815493
-3.7533 1.9509 9.06127 0.9375 0.4375 -0.37533 0.19509 0.906127
-1.91342 1.9509 9.6194 0.96875 0.4375 -0.191342 0.19509 0.96194
1.71486e-06 1.9509 9.80785 1 0.4375 1.71486e-07 0.19509 0.980785
0 3.82684 9.2388 0 0.375 0 0.382684 0.92388
1.8024 3.82684 9.06127 0.03125 0.375 0.18024 0.382684 0.906127
3.53553 3.82684 8.53553 0.0625 0.375 0.353553 0.382684 0.853553
5.1328 3.82684 7.68178 0.09375 0.375 0.51328 0.382684 0.768178
6.53281 3.82684 6.53281 0.125 0.375 0.653281 0.382684 0.653281
7.68178 3.82684 5.1328 0.15625 0.375 0.768178 0.382684 0.51328
8.53553 3.82684 3.53553 0.1875 0.375 0.853553 0.382684 0.353553
9.06127 3.82684 1.8024 0.21875 0.375 0.906127 0.382684 0.18024
9.2388 3.82684 -4.03841e-07 0.25 0.375 0.92388 0.382684 -4.03841e-08
9.06127 3.82684 -1.8024 0.28125 0.375 0.906127 0.382684 -0.18024
8.53553 3.82684 -3.53553 0.3125 0.375 0.853553 0.382684 -0.353553
7.68178 3.82684 -5.1328 0.34375 0.375 0.768178 0.382684 -0.51328
6.53281 3.82684 -6.53281 0.375 0.375 0.653281 0.382684 -0.653281
5.1328 3.82684 -7.68178 0.40625 0.375 0.51328 0.382684 -0.768178
3.53553 3.82684 -8.53553 0.4375 0.375 0.353553 0.382684 -0.853553
1.8024 3.82684 -9.06127 0.46875 0.375 0.18024 0.382684 -0.906127
-8.07681e-07 3.82684 -9.2388 0.5 0.375 -8.07681e-08 0.382684 -0.92388
-1.8024 3.82684 -9.06127 0.53125 0.375 -0.18024 0.382684 -0.906127
-3.53553 3.82684 -8.53553 0.5625 0.375 -0.353553 0.382684 -0.853553
-5.1328 3.82684 -7.68178 0.59375 0.375 -0.51328 0.382684 -0.768178
-6.53282 3.82684 -6.53281 0.625 0.375 -0.653282 0.382684 -0.653281
-7.68178 3.82684 -5.1328 0.65625 0.375 -0.768178 0.382684 -0.51328
-8.53553 3.82684 -3.53553 0.6875 0.375 -0.853553 0.382684 -0.353553
-9.06127 3.82684 -1.8024 0.71875 0.375 -0.906127 0.382684 -0.18024
-9.2388 3.82684 1.10172e-07 0.75 0.375 -0.92388 0.382684 1.10172e-08
-9.06127 3.82684 1.8024 0.78125 0.375 -0.906127 0.382684 0.18024
-8.53553 3.82684 3.53554 0.8125 0.375 -0.853553 0.382684 0.353554
-7.68178 3.82684 5.1328 0.84375 0.375 -0.768178 0.382684 0.51328
-6.53281 3.82684 6.53282 0.875 0.375 -0.653281 0.382684 0.653282
-5.1328 3.82684 7.68178 0.90625 0.375 -0.51328 0.382684 0.768178
-3.53553 3.82684 8.53553 0.9375 0.375 -0.353553 0.382684 0.853553
-1.8024 3.82684 9.06127 0.96875 0.375 -0.18024 0.382684 0.906127
1.61536e-06 3.82684 9.2388 1 0.375 1.61536e-07 0.382684 0.92388
0 5.5557 8.3147 0 0.3125 0 0.55557 0.83147
1.62212 5.5557 8.15493 0.03125 0.3125 0.162212 0.55557 0.815493
3.1819 5.5557 7.68178 0.0625 0.3125 0.31819 0.55557 0.768178
4.6194 5.5557 6.91342 0.09375 0.3125 0.46194 0.55557 0.691342
5.87938 5.5557 5.87938 0.125 0.3125 0.587938 0.55557 0.587938
6.91342 5.5557 4.6194 0.15625 0.3125 0.691342 0.55557 0.46194
7.68178 5.5557 3.1819 0.1875 0.3125 0.768178 0.55557 0.31819
8.15493 5.5557 1.62212 0.21875 0.3125 0.815493 0.55557 0.162212
8.3147 5.5557 -3.63447e-07 0.25 0.3125 0.83147 0.55557 -3.63447e-08
8.15493 5.5557 -1.62212 0.28125 0.3125 0.815493 0.55557 -0.162212
7.68178 5.5557 -3.1819 0.3125 0.3125 0.768178 0.55557 -0.31819
6.91342 5.5557 -4.6194 0.34375 0.3125 0.691342 0.55557 -0.46194
5.87938 5.5557 -5.87938 0.375 0.3125 0.587938 0.55557 -0.587938
4.6194 5.5557 -6.91342 0.40625 0.3125 0.46194 0.55557 -0.691342
3.18189 5.5557 -7.68178 0.4375 0.3125 0.318189 0.55557 -0.768178
1.62212 5.5557 -8.15493 0.46875 0.3125 0.162212 0.55557 -0.815493
-7.26894e-07 5.5557 -8.3147 0.5 0.3125 -7.26894e-08 0.55557 -0.83147
-1.62212 5.5557 -8.15493 0.53125 0.3125 -0.162212 0.55557 -0.815493
-3.1819 5.5557 -7.68178 0.5625 0.3125 -0.31819 0.55557 -0.768178
-4.6194 5.5557 -6.91342 0.59375 0.3125 -0.46194 0.55557 -0.691342
-5.87938 5.5557 -5.87938 0.625 0.3125 -0.587938 0.55557 -0.587938
-6.91342 5.5557 -4.6194 0.65625 0.3125 -0.691342 0.55557 -0.46194
-7.68178 5.5557 -3.18189 0.6875 0.3125 -0.768178 0.55557 -0.318189
-8.15493 5.5557 -1.62212 0.71875 0.3125 -0.815493 0.55557 -0.162212
-8.3147 5.5557 9.91518e-08 0.75 0.3125 -0.83147 0.55557 9.91518e-09
-8.15493 5.5557 1.62212 0.78125 0.3125 -0.815493 0.55557 0.162212
-7.68178 5.5557 3.1819 0.8125 0.3125 -0.768178 0.55557 0.31819
-6.91341 5.5557 4.6194 0.84375 0.3125 -0.691342 0.55557 0.46194
-5.87938 5.5557 5.87938 0.875 0.3125 -0.587938 0.55557 0.587938
-4.6194 5.5557 6.91342 0.90625 0.3125 -0.46194 0.55557 0.691342
-3.1819 5.5557 7.68178 0.9375 0.3125 -0.31819 0.55557 0.768178
-1.62212 5.5557 8.15493 0.96875 0.3125 -0.162212 0.55557 0.815493
1.45379e-06 5.5557 8.3147 1 0.3125 1.45379e-07 0.55557 0.83147
0 7.07107 7.07107 0 0.25 0 0.707107 0.707107
1.3795 7.07107 6.9352 0.03125 0.25 0.13795 0.707107 0.69352
2.70598 7.07107 6.53281 0.0625 0.25 0.270598 0.707107 0.653281
3.92847 7.07107 5.87938 0.09375 0.25 0.392847 0.707107 0.587938
5 7.07107 5 0.125 0.25 0.5 0.707107 0.5
5.87938 7.07107 3.92847 0.15625 0.25 0.587938 0.707107 0.392847
6.53281 7.07107 2.70598 0.1875 0.25 0.653281 0.707107 0.270598
6.9352 7.07107 1.3795 0.21875 0.25 0.69352 0.707107 0.13795
7.07107 7.07107 -3.09086e-07 0.25 0.25 0.707107 0.707107 -3.09086e-08
6.9352 7.07107 -1.3795 0.28125 0.25 0.69352 0.707107 -0.13795
6.53281 7.07107 -2.70598 0.3125 0.25 0.653281 0.707107 -0.270598
5.87938 7.07107 -3.92848 0.34375 0.25 0.587938 0.707107 -0.392848
5 7.07107 -5 0.375 0.25 0.5 0.707107 -0.5
3.92847 7.07107 -5.87938 0.40625 0.25 0.392847 0.707107 -0.587938
2.70598 7.07107 -6.53281 0.4375 0.25 0.270598 0.707107 -0.653282
1.3795 7.07107 -6.9352 0.46875 0.25 0.13795 0.707107 -0.69352
-6.18172e-07 7.07107 -7.07107 0.5 0.25 -6.18172e-08 0.707107 -0.707107
-1.3795 7.07107 -6.9352 0.53125 0.25 -0.13795 0.707107 -0.69352
-2.70598 7.07107 -6.53281 0.5625 0.25 -0.270598 0.707107 -0.653281
-3.92848 7.07107 -5.87938 0.59375 0.25 -0.392848 0.707107 -0.587938
-5 7.07107 -5 0.625 0.25 -0.5 0.707107 -0.5
-5.87938 7.07107 -3.92847 0.65625 0.25 -0.587938 0.707107 -0.392847
-6.53282 7.07107 -2.70598 0.6875 0.25 -0.653282 0.707107 -0.270598
-6.9352 7.07107 -1.3795 0.71875 0.25 -0.69352 0.707107 -0.13795
-7.07107 7.07107 8.43216e-08 0.75 0.25 -0.707107 0.707107 8.43216e-09
-6.9352 7.07107 1.3795 0.78125 0.25 -0.69352 0.707107 0.13795
-6.53281 7.07107 2.70598 0.8125 0.25 -0.653281 0.707107 0.270598
-5.87938 7.07107 3.92848 0.84375 0.25 -0.587938 0.707107 0.392848
-5 7.07107 5 0.875 0.25 -0.5 0.707107 0.5
-3.92848 7.07107 5.87938 0.90625 0.25 -0.392848 0.707107 0.587938
-2.70598 7.07107 6.53281 0.9375 0.25 -0.270598 0.707107 0.653282
-1.3795 7.07107 6.9352 0.96875 0.25 -0.13795 0.707107 0.69352
1.23634e-06 7.07107 7.07107 1 0.25 1.23634e-07 0.707107 0.707107
0 8.3147 5.5557 0 0.1875 0 0.83147 0.55557
1.08386 8.3147 5.44895 0.03125 0.1875 0.108386 0.83147 0.544895
2.12608 8.3147 5.1328 0.0625 0.1875 0.212608 0.83147 0.51328
3.08658 8.3147 4.6194 0.09375 0.1875 0.308658 0.83147 0.46194
3.92847 8.3147 3.92847 0.125 0.1875 0.392847 0.83147 0.392847
4.6194 8.3147 3.08658 0.15625 0.1875 0.46194 0.83147 0.308658
5.1328 8.3147 2.12608 0.1875 0.1875 0.51328 0.83147 0.212608
5.44895 8.3147 1.08386 0.21875 0.1875 0.544895 0.83147 0.108386
5.5557 8.3147 -2.42847e-07 0.25 0.1875 0.55557 0.83147 -2.42847e-08
5.44895 8.3147 -1.08386 0.28125 0.1875 0.544895 0.83147 -0.108386
5.1328 8.3147 -2.12608 0.3125 0.1875 0.51328 0.83147 -0.212608
4.6194 8.3147 -3.08658 0.34375 0.1875 0.46194 0.83147 -0.308658
3.92847 8.3147 -3.92847 0.375 0.1875 0.392847 0.83147 -0.392847
3.08658 8.3147 -4.6194 0.40625 0.1875 0.308658 0.83147 -0.46194
2.12607 8.3147 -5.1328 0.4375 0.1875 0.212607 0.83147 -0.51328
1.08386 8.3147 -5.44895 0.46875 0.1875 0.108386 0.83147 -0.544895
-4.85695e-07 8.3147 -5.5557 0.5 0.1875 -4.85695e-08 0.83147 -0.55557
-1.08386 8.3147 -5.44895 0.53125 0.1875 -0.108386 0.83147 -0.544895
-2.12608 8.3147 -5.1328 0.5625 0.1875 -0.212608 0.83147 -0.51328
-3.08658 8.3147 -4.6194 0.59375 0.1875 -0.308658 0.83147 -0.46194
-3.92848 8.3147 -3.92847 0.625 0.1875 -0.392848 0.83147 -0.392847
-4.6194 8.3147 -3.08658 0.65625 0.1875 -0.46194 0.83147 -0.308658
-5.1328 8.3147 -2.12607 0.6875 0.1875 -0.51328 0.83147 -0.212607
-5.44895 8.3147 -1.08386 0.71875 0.1875 -0.544895 0.83147 -0.108386
-5.5557 8.3147 6.62511e-08 0.75 0.1875 -0.55557 0.83147 6.62511e-09
-5.44895 8.3147 1.08386 0.78125 0.1875 -0.544895 0.83147 0.108386
-5.1328 8.3147 2.12608 0.8125 0.1875 -0.51328 0.83147 0.212608
-4.6194 8.3147 3.08658 0.84375 0.1875 -0.46194 0.83147 0.308658
-3.92847 8.3147 3.92848 0.875 0.1875 -0.392847 0.83147 0.392848
-3.08658 8.3147 4.6194 0.90625 0.1875 -0.308658 0.83147 0.46194
-2.12608 8.3147 5.1328 0.9375 0.1875 -0.212608 0.83147 0.51328
-1.08386 8.3147 5.44895 0.96875 0.1875 -0.108386 0.83147 0.544895
9.7139e-07 8.3147 5.5557 1 0.1875 9.7139e-08 0.83147 0.55557
0 9.2388 3.82683 0 0.125 0 0.92388 0.382683
0.746578 9.2388 3.7533 0.03125 0.125 0.0746578 0.92388 0.37533
1.46447 9.2388 3.53553 0.0625 0.125 0.146447 0.92388 0.353553
2.12607 9.2388 3.1819 0.09375 0.125 0.212607 0.92388 0.31819
2.70598 9.2388 2.70598 0.125 0.125 0.270598 0.92388 0.270598
3.1819 9.2388 2.12607 0.15625 0.125 0.31819 0.92388 0.212607
3.53553 9.2388 1.46447 0.1875 0.125 0.353553 0.92388 0.146447
3.7533 9.2388 0.746578 0.21875 0.125 0.37533 0.92388 0.0746578
3.82683 9.2388 -1.67276e-07 0.25 0.125 0.382683 0.92388 -1.67276e-08
3.7533 9.2388 -0.746578 0.28125 0.125 0.37533 0.92388 -0.0746578
3.53553 9.2388 -1.46447 0.3125 0.125 0.353553 0.92388 -0.146447
3.18189 9.2388 -2.12607 0.34375 0.125 0.318189 0.92388 -0.212607
2.70598 9.2388 -2.70598 0.375 0.125 0.270598 0.92388 -0.270598
2.12607 9.2388 -3.1819 0.40625 0.125 0.212607 0.92388 -0.31819
1.46446 9.2388 -3.53553 0.4375 0.125 0.146446 0.92388 -0.353553
0.746578 9.2388 -3.7533 0.46875 0.125 0.0746578 0.92388 -0.37533
-3.34552e-07 9.2388 -3.82683 0.5 0.125 -3.34552e-08 0.92388 -0.382683
-0.746579 9.2388 -3.7533 0.53125 0.125 -0.0746579 0.92388 -0.37533
-1.46447 9.2388 -3.53553 0.5625 0.125 -0.146447 0.92388 -0.353553
-2.12607 9.2388 -3.18189 0.59375 0.125 -0.212607 0.92388 -0.318189
-2.70598 9.2388 -2.70598 0.625 0.125 -0.270598 0.92388 -0.270598
-3.1819 9.2388 -2.12607 0.65625 0.125 -0.31819 0.92388 -0.212607
-3.53553 9.2388 -1.46446 0.6875 0.125 -0.353553 0.92388 -0.146446
-3.7533 9.2388 -0.746578 0.71875 0.125 -0.37533 0.92388 -0.0746578
-3.82683 9.2388 4.56345e-08 0.75 0.125 -0.382683 0.92388 4.56345e-09
-3.7533 9.2388 0.746578 0.78125 0.125 -0.37533 0.92388 0.0746578
-3.53553 9.2388 1.46447 0.8125 0.125 -0.353553 0.92388 0.146447
-3.18189 9.2388 2.12608 0.84375 0.125 -0.318189 0.92388 0.212608
-2.70598 9.2388 2.70598 0.875 0.125 -0.270598 0.92388 0.270598
-2.12607 9.2388 3.1819 0.90625 0.125 -0.212607 0.92388 0.31819
-1.46447 9.2388 3.53553 0.9375 0.125 -0.146447 0.92388 0.353553
-0.746578 9.2388 3.7533 0.96875 0.125 -0.0746578 0.92388 0.37533
6.69105e-07 9.2388 3.82683 1 0.125 6.69105e-08 0.92388 0.382683
0 9.80785 1.9509 0 0.0625 0 0.980785 0.19509
0.380602 9.80785 1.91342 0.03125 0.0625 0.0380602 0.980785 0.191342
0.746578 9.80785 1.8024 0.0625 0.0625 0.0746578 0.980785 0.18024
1.08386 9.80785 1.62212 0.09375 0.0625 0.108386 0.980785 0.162212
1.3795 9.80785 1.3795 0.125 0.0625 0.13795 0.980785 0.13795
1.62212 9.80785 1.08386 0.15625 0.0625 0.162212 0.980785 0.108386
1.8024 9.80785 0.746578 0.1875 0.0625 0.18024 0.980785 0.0746578
1.91342 9.80785 0.380602 0.21875 0.0625 0.191342 0.980785 0.0380602
1.9509 9.80785 -8.52767e-08 0.25 0.0625 0.19509 0.980785 -8.52767e-09
1.91342 9.80785 -0.380602 0.28125 0.0625 0.191342 0.980785 -0.0380602
1.8024 9.80785 -0.746578 0.3125 0.0625 0.18024 0.980785 -0.0746578
1.62212 9.80785 -1.08386 0.34375 0.0625 0.162212 0.980785 -0.108386
1.3795 9.80785 -1.3795 0.375 0.0625 0.13795 0.980785 -0.13795
1.08386 9.80785 -1.62212 0.40625 0.0625 0.108386 0.980785 -0.162212
0.746578 9.80785 -1.8024 0.4375 0.0625 0.0746578 0.980785 -0.18024
0.380602 9.80785 -1.91342 0.46875 0.0625 0.0380602 0.980785 -0.191342
-1.70553e-07 9.80785 -1.9509 0.5 0.0625 -1.70553e-08 0.980785 -0.19509
-0.380603 9.80785 -1.91342 0.53125 0.0625 -0.0380603 0.980785 -0.191342
-0.746578 9.80785 -1.8024 0.5625 0.0625 -0.0746578 0.980785 -0.18024
-1.08386 9.80785 -1.62212 0.59375 0.0625 -0.108386 0.980785 -0.162212
-1.3795 9.80785 -1.3795 0.625 0.0625 -0.13795 0.980785 -0.13795
-1.62212 9.80785 -1.08386 0.65625 0.0625 -0.162212 0.980785 -0.108386
-1.8024 9.80785 -0.746578 0.6875 0.0625 -0.18024 0.980785 -0.0746578
-1.91342 9.80785 -0.380602 0.71875 0.0625 -0.191342 0.980785 -0.0380602
-1.9509 9.80785 2.32643e-08 0.75 0.0625 -0.19509 0.980785 2.32643e-09
-1.91342 9.80785 0.380602 0.78125 0.0625 -0.191342 0.980785 0.0380602
-1.8024 9.80785 0.746579 0.8125 0.0625 -0.18024 0.980785 0.0746579
-1.62212 9.80785 1.08386 0.84375 0.0625 -0.162212 0.980785 0.108386
-1.3795 9.80785 1.3795 0.875 0.0625 -0.13795 0.980785 0.13795
-1.08386 9.80785 1.62212 0.90625 0.0625 -0.108386 0.980785 0.162212
-0.746578 9.80785 1.8024 0.9375 0.0625 -0.0746578 0.980785 0.18024
-0.380602 9.80785 1.91342 0.96875 0.0625 -0.0380602 0.980785 0.191342
3.41107e-07 9.80785 1.9509 1 0.0625 3.41107e-08 0.980785 0.19509
-0 10 -8.74228e-07 0 0 -0 1 -8.74228e-08
-1.70553e-07 10 -8.5743e-07 0.03125 0 -1.70553e-08 1 -8.5743e-08
-3.34553e-07 10 -8.07681e-07 0.0625 0 -3.34553e-08 1 -8.07681e-08
-4.85695e-07 10 -7.26894e-07 0.09375 0 -4.85695e-08 1 -7.26894e-08
-6.18172e-07 10 -6.18172e-07 0.125 0 -6.18172e-08 1 -6.18172e-08
-7.26894e-07 10 -4.85695e-07 0.15625 0 -7.26894e-08 1 -4.85695e-08
-8.07681e-07 10 -3.34552e-07 0.1875 0 -8.07681e-08 1 -3.34552e-08
-8.5743e-07 10 -1.70553e-07 0.21875 0 -8.5743e-08 1 -1.70553e-08
-8.74228e-07 10 3.82137e-14 0.25 0 -8.74228e-08 1 3.82137e-15
-8.5743e-07 10 1.70553e-07 0.28125 0 -8.5743e-08 1 1.70553e-08
-8.07681e-07 10 3.34553e-07 0.3125 0 -8.07681e-08 1 3.34553e-08
-7.26894e-07 10 4.85695e-07 0.34375 0 -7.26894e-08 1 4.85695e-08
-6.18172e-07 10 6.18172e-07 0.375 0 -6.18172e-08 1 6.18172e-08
-4.85695e-07 10 7.26894e-07 0.40625 0 -4.85695e-08 1 7.26894e-08
-3.34552e-07 10 8.07681e-07 0.4375 0 -3.34552e-08 1 8.07681e-08
-1.70553e-07 10 8.5743e-07 0.46875 0 -1.70553e-08 1 8.5743e-08
7.64274e-14 10 8.74228e-07 0.5 0 7.64274e-15 1 8.74228e-08
1.70554e-07 10 8.5743e-07 0.53125 0 1.70554e-08 1 8.5743e-08
3.34552e-07 10 8.07681e-07 0.5625 0 3.34552e-08 1 8.07681e-08
4.85695e-07 10 7.26894e-07 0.59375 0 4.85695e-08 1 7.26894e-08
6.18172e-07 10 6.18172e-07 0.625 0 6.18172e-08 1 6.18172e-08
7.26894e-07 10 4.85695e-07 0.65625 0 7.26894e-08 1 4.85695e-08
8.07681e-07 10 3.34552e-07 0.6875 0 8.07681e-08 1 3.34552e-08
8.5743e-07 10 1.70553e-07 0.71875 0 8.5743e-08 1 1.70553e-08
8.74228e-07 10 -1.04251e-14 0.75 0 8.74228e-08 1 -1.04251e-15
8.5743e-07 10 -1.70553e-07 0.78125 0 8.5743e-08 1 -1.70553e-08
8.07681e-07 10 -3.34553e-07 0.8125 0 8.07681e-08 1 -3.34553e-08
7.26894e-07 10 -4.85695e-07 0.84375 0 7.26894e-08 1 -4.85695e-08
6.18172e-07 10 -6.18173e-07 0.875 0 6.18172e-08 1 -6.18173e-08
4.85695e-07 10 -7.26894e-07 0.90625 0 4.85695e-08 1 -7.26894e-08
3.34552e-07 10 -8.07681e-07 0.9375 0 3.34552e-08 1 -8.07681e-08
1.70553e-07 10 -8.5743e-07 0.96875 0 1.70553e-08 1 -8.5743e-08
-1.52855e-13 10 -8.74228e-07 1 0 -1.52855e-14 1 -8.74228e-08
3 1 33 34
3 2 34 35
3 3 35 36
3 4 36 37
3 5 37 38
3 6 38 39
3 7 39 40
3 8 40 41
3 9 41 42
3 10 42 43
3 11 43 44
3 12 44 45
3 13 45 46
3 14 46 47
3 15 47 48
3 16 48 49
3 17 49 50
3 18 50 51
3 19 51 52
3 20 52 53
3 21 53 54
3 22 54 55
3 23 55 56
3 24 56 57
3 25 57 58
3 26 58 59
3 27 59 60
3 28 60 61
3 29 61 62
3 30 62 63
3 31 63 64
3 32 64 65
3 33 66 34
3 34 66 67
3 34 67 35
3 35 67 68
3 35 68 36
3 36 68 69
3 36 69 37
3 37 69 70
3 37 70 38
3 38 70 71
3 38 71 39
3 39 71 72
3 39 72 40
3 40 72 73
3 40 73 41
3 41 73 74
3 41 74 42
3 42 74 75
3 42 75 43
3 43 75 76
3 43 76 44
3 44 76 77
3 44 77 45
3 45 77 78
3 45 78 46
3 46 78 79
3 46 79 47
3 47 79 80
3 47 80 48
3 48 80 81
3 48 81 49
3 49 81 82
3 49 82 50
3 50 82 83
3 50 83 51
3 51 83 84
3 51 84 52
3 52 84 85
3 52 85 53
3 53 85 86
3 53 86 54
3 54 86 87
3 54 87 55
3 55 87 88
3 55 88 56
3 56 88 89
3 56 89 57
3 57 89 90
3 57 90 58
3 58 90 91
3 58 91 59
3 59 91 92
3 59 92 60
3 60 92 93
3 60 93 61
3 61 93 94
3 61 94 62
3 62 94 95
3 62 95 63
3 63 95 96
3 63 96 64
3 64 96 97
3 64 97 65
3 65 97 98
3 66 99 67
3 67 99 100
3 67 100 68
3 68 100 101
3 68 101 69
3 69 101 102
3 69 102 70
3 70 102 103
3 70 103 71
3 71 103 104
3 71 104 72
3 72 104 105
3 72 105 73
3 73 105 106
3 73 106 74
3 74 106 107
3 74 107 75
3 75 107 108
3 75 108 76
3 76 108 109
3 76 109 77
3 77 109 110
3 77 110 78
3 78 110 111
3 78 111 79
3 79 111 112
3 79 112 80
3 80 112 113
3 80 113 81
3 81 113 114
3 81 114 82
3 82 114 115
3 82 115 83
3 83 115 116
3 83 116 84
3 84 116 117
3 84 117 85
3 85 117 118
3 85 118 86
3 86 118 119
3 86 119 87
3 87 119 120
3 87 120 88
3 88 120 121
3 88 121 89
3 89 121 122
3 89 122 90
3 90 122 123
3 90 123 91
3 91 123 124
3 91 124 92
3 92 124 125
3 92 125 93
3 93 125 126
3 93 126 94
3 94 126 127
3 94 127 95
3 95 127 128
3 95 128 96
3 96 128 129
3 96 129 97
3 97 129 130
3 97 130 98
3 98 130 131
3 99 132 100
3 100 132 133
3 100 133 101
3 101 133 134
3 101 134 102
3 102 134 135
3 102 135 103
3 103 135 136
3 103 136 104
3 104 136 137
3 104 137 105
3 105 137 138
3 105 138 106
3 106 138 139
3 106 139 107
3 107 139 140
3 107 140 108
3 108 140 141
3 108 141 109
3 109 141 142
3 109 142 110
3 110 142 143
3 110 143 111
3 111 143 144
3 111 144 112
3 112 144 145
3 112 145 113
3 113 145 146
3 113 146 114
3 114 146 147
3 114 147 115
3 115 147 148
3 115 148 116
3 116 148 149
3 116 149 117
3 117 149 150
3 117 150 118
3 118 150 151
3 118 151 119
3 119 151 152
3 119 152 120
3 120 152 153
3 120 153 121
3 121 153 154
3 121 154 122
3 122 154 155
3 122 155 123
3 123 155 156
3 123 156 124
3 124 156 157
3 124 157 125
3 125 157 158
3 125 158 126
3 126 158 159
3 126 159 127
3 127 159 160
3 127 160 128
3 128 160 161
3 128 161 129
3 129 161 162
3 129 162 130
3 130 162 163
3 130 163 131
3 131 163 164
3 132 165 133
3 133 165 166
3 133 166 134
3 134 166 167
3 134 167 135
3 135 167 168
3 135 168 136
3 136 168 169
3 136 169 137
3 137 169 170
3 137 170 138
3 138 170 171
3 138 171 139
3 139 171 172
3 139 172 140
3 140 172 173
3 140 173 141
3 141 173 174
3 141 174 142
3 142 174 175
3 142 175 143
3 143 175 176
3 143 176 144
3 144 176 177
3 144 177 145
3 145 177 178
3 145 178 146
3 146 178 179
3 146 179 147
3 147 179 180
3 147 180 148
3 148 180 181
3 148 181 149
3 149 181 182
3 149 182 150
3 150 182 183
3 150 183 151
3 151 183 184
3 151 184 152
3 152 184 185
3 152 185 153
3 153 185 186
3 153 186 154
3 154 186 187
3 154 187 155
3 155 187 188
3 155 188 156
3 156 188 189
3 156 189 157
3 157 189 190
3 157 190 158
3 158 190 191
3 158 191 159
3 159 191 192
3 159 192 160
3 160 192 193
3 160 193 161
3 161 193 194
3 161 194 162
3 162 194 195
3 162 195 163
3 163 195 196
3 163 196 164
3 164 196 197
3 165 198 166
3 166 198 199
3 166 199 167
3 167 199 200
3 167 200 168
3 168 200 201
3 168 201 169
3 169 201 202
3 169 202 170
3 170 202 203
3 170 203 171
3 171 203 204
3 171 204 172
3 172 204 205
3 172 205 173
3 173 205 206
3 173 206 174
3 174 206 207
3 174 207 175
3 175 207 208
3 175 208 176
3 176 208 209
3 176 209 177
3 177 209 210
3 177 210 178
3 178 210 211
3 178 211 179
3 179 211 212
3 179 212 180
3 180 212 213
3 180 213 181
3 181 213 214
3 181 214 182
3 182 214 215
3 182 215 183
3 183 215 216
3 183 216 184
3 184 216 217
3 184 217 185
3 185 217 218
3 185 218 186
3 186 218 219
3 186 219 187
3 187 219 220
3 187 220 188
3 188 220 221
3 188 221 189
3 189 221 222
3 189 222 190
3 190 222 223
3 190 223 191
3 191 223 224
3 191 224 192
3 192 224 225
3 192 225 193
3 193 225 226
3 193 226 194
3 194 226 227
3 194 227 195
3 195 227 228
3 195 228 196
3 196 228 229
3 196 229 197
3 197 229 230
3 198 231 199
3 199 231 232
3 199 232 200
3 200 232 233
3 200 233 201
3 201 233 234
3 201 234 202
3 202 234 235
3 202 235 203
3 203 235 236
3 203 236 204
3 204 236 237
3 204 237 205
3 205 237 238
3 205 238 206
3 206 238 239
3 206 239 207
3 207 239 240
3 207 240 208
3 208 240 241
3 208 241 209
3 209 241 242
3 209 242 210
3 210 242 243
3 210 243 211
3 211 243 244
3 211 244 212
3 212 244 245
3 212 245 213
3 213 245 246
3 213 246 214
3 214 246 247
3 214 247 215
3 215 247 248
3 215 248 216
3 216 248 249
3 216 249 217
3 217 249 250
3 217 250 218
3 218 250 251
3 218 251 219
3 219 251 252
3 219 252 220
3 220 252 253
3 220 253 221
3 221 253 254
3 221 254 222
3 222 254 255
3 222 255 223
3 223 255 256
3 223 256 224
3 224 256 257
3 224 257 225
3 225 257 258
3 225 258 226
3 226 258 259
3 226 259 227
3 227 259 260
3 227 260 228
3 228 260 261
3 228 261 229
3 229 261 262
3 229 262 230
3 230 262 263
3 231 264 232
3 232 264 265
3 232 265 233
3 233 265 266
3 233 266 234
3 234 266 267
3 234 267 235
3 235 267 268
3 235 268 236
3 236 268 269
3 236 269 237
3 237 269 270
3 237 270 238
3 238 270 271
3 238 271 239
3 239 271 272
3 239 272 240
3 240 272 273
3 240 273 241
3 241 273 274
3 241 274 242
3 242 274 275
3 242 275 243
3 243 275 276
3 243 276 244
3 244 276 277
3 244 277 245
3 245 277 278
3 245 278 246
3 246 278 279
3 246 279 247
3 247 279 280
3 247 280 248
3 248 280 281
3 248 281 249
3 249 281 282
3 249 282 250
3 250 282 283
3 250 283 251
3 251 283 284
3 251 284 252
3 252 284 285
3 252 285 253
3 253 285 286
3 253 286 254
3 254 286 287
3 254 287 255
3 255 287 288
3 255 288 256
3 256 288 289
3 256 289 257
3 257 289 290
3 257 290 258
3 258 290 291
3 258 291 259
3 259 291 292
3 259 292 260
3 260 292 293
3 260 293 261
3 261 293 294
3 261 294 262
3 262 294 295
3 262 295 263
3 263 295 296
3 264 297 265
3 265 297 298
3 265 298 266
3 266 298 299
3 266 299 267
3 267 299 300
3 267 300 268
3 268 300 301
3 268 301 269
3 269 301 302
3 269 302 270
3 270 302 303
3 270 303 271
3 271 303 304
3 271 304 272
3 272 304 305
3 272 305 273
3 273 305 306
3 273 306 274
3 274 306 307
3 274 307 275
3 275 307 308
3 275 308 276
3 276 308 309
3 276 309 277
3 277 309 310
3 277 310 278
3 278 310 311
3 278 311 279
3 279 311 312
3 279 312 280
3 280 312 313
3 280 313 281
3 281 313 314
3 281 314 282
3 282 314 315
3 282 315 283
3 283 315 316
3 283 316 284
3 284 316 317
3 284 317 285
3 285 317 318
3 285 318 286
3 286 318 319
3 286 319 287
3 287 319 320
3 287 320 288
3 288 320 321
3 288 321 289
3 289 321 322
3 289 322 290
3 290 322 323
3 290 323 291
3 291 323 324
3 291 324 292
3 292 324 325
3 292 325 293
3 293 325 326
3 293 326 294
3 294 326 327
3 294 327 295
3 295 327 328
3 295 328 296
3 296 328 329
3 297 330 298
3 298 330 331
3 298 331 299
3 299 331 332
3 299 332 300
3 300 332 333
3 300 333 301
3 301 333 334
3 301 334 302
3 302 334 335
3 302 335 303
3 303 335 336
3 303 336 304
3 304 336 337
3 304 337 305
3 305 337 338
3 305 338 306
3 306 338 339
3 306 339 307
3 307 339 340
3 307 340 308
3 308 340 341
3 308 341 309
3 309 341 342
3 309 342 310
3 310 342 343
3 310 343 311
3 311 343 344
3 311 344 312
3 312 344 345
3 312 345 313
3 313 345 346
3 313 346 314
3 314 346 347
3 314 347 315
3 315 347 348
3 315 348 316
3 316 348 349
3 316 349 317
3 317 349 350
3 317 350 318
3 318 350 351
3 318 351 319
3 319 351 352
3 319 352 320
3 320 352 353
3 320 353 321
3 321 353 354
3 321 354 322
3 322 354 355
3 322 355 323
3 323 355 356
3 323 356 324
3 324 356 357
3 324 357 325
3 325 357 358
3 325 358 326
3 326 358 359
3 326 359 327
3 327 359 360
3 327 360 328
3 328 360 361
3 328 361 329
3 329 361 362
3 330 363 331
3 331 363 364
3 331 364 332
3 332 364 365
3 332 365 333
3 333 365 366
3 333 366 334
3 334 366 367
3 334 367 335
3 335 367 368
3 335 368 336
3 336 368 369
3 336 369 337
3 337 369 370
3 337 370 338
3 338 370 371
3 338 371 339
3 339 371 372
3 339 372 340
3 340 372 373
3 340 373 341
3 341 373 374
3 341 374 342
3 342 374 375
3 342 375 343
3 343 375 376
3 343 376 344
3 344 376 377
3 344 377 345
3 345 377 378
3 345 378 346
3 346 378 379
3 346 379 347
3 347 379 380
3 347 380 348
3 348 380 381
3 348 381 349
3 349 381 382
3 349 382 350
3 350 382 383
3 350 383 351
3 351 383 384
3 351 384 352
3 352 384 385
3 352 385 353
3 353 385 386
3 353 386 354
3 354 386 387
3 354 387 355
3 355 387 388
3 355 388 356
3 356 388 389
3 356 389 357
3 357 389 390
3 357 390 358
3 358 390 391
3 358 391 359
3 359 391 392
3 359 392 360
3 360 392 393
3 360 393 361
3 361 393 394
3 361 394 362
3 362 394 395
3 363 396 364
3 364 396 397
3 364 397 365
3 365 397 398
3 365 398 366
3 366 398 399
3 366 399 367
3 367 399 400
3 367 400 368
3 368 400 401
3 368 401 369
3 369 401 402
3 369 402 370
3 370 402 403
3 370 403 371
3 371 403 404
3 371 404 372
3 372 404 405
3 372 405 373
3 373 405 406
3 373 406 374
3 374 406 407
3 374 407 375
3 375 407 408
3 375 408 376
3 376 408 409
3 376 409 377
3 377 409 410
3 377 410 378
3 378 410 411
3 378 411 379
3 379 411 412
3 379 412 380
3 380 412 413
3 380 413 381
3 381 413 414
3 381 414 382
3 382 414 415
3 382 415 383
3 383 415 416
3 383 416 384
3 384 416 417
3 384 417 385
3 385 417 418
3 385 418 386
3 386 418 419
3 386 419 387
3 387 419 420
3 387 420 388
3 388 420 421
3 388 421 389
3 389 421 422
3 389 422 390
3 390 422 423
3 390 423 391
3 391 423 424
3 391 424 392
3 392 424 425
3 392 425 393
3 393 425 426
3 393 426 394
3 394 426 427
3 394 427 395
3 395 427 428
3 396 429 397
3 397 429 430
3 397 430 398
3 398 430 431
3 398 431 399
3 399 431 432
3 399 432 400
3 400 432 433
3 400 433 401
3 401 433 434
3 401 434 402
3 402 434 435
3 402 435 403
3 403 435 436
3 403 436 404
3 404 436 437
3 404 437 405
3 405 437 438
3 405 438 406
3 406 438 439
3 406 439 407
3 407 439 440
3 407 440 408
3 408 440 441
3 408 441 409
3 409 441 442
3 409 442 410
3 410 442 443
3 410 443 411
3 411 443 444
3 411 444 412
3 412 444 445
3 412 445 413
3 413 445 446
3 413 446 414
3 414 446 447
3 414 447 415
3 415 447 448
3 415 448 416
3 416 448 449
3 416 449 417
3 417 449 450
3 417 450 418
3 418 450 451
3 418 451 419
3 419 451 452
3 419 452 420
3 420 452 453
3 420 453 421
3 421 453 454
3 421 454 422
3 422 454 455
3 422 455 423
3 423 455 456
3 423 456 424
3 424 456 457
3 424 457 425
3 425 457 458
3 425 458 426
3 426 458 459
3 426 459 427
3 427 459 460
3 427 460 428
3 428 460 461
3 429 462 430
3 430 462 463
3 430 463 431
3 431 463 464
3 431 464 432
3 432 464 465
3 432 465 433
3 433 465 466
3 433 466 434
3 434 466 467
3 434 467 435
3 435 467 468
3 435 468 436
3 436 468 469
3 436 469 437
3 437 469 470
3 437 470 438
3 438 470 471
3 438 471 439
3 439 471 472
3 439 472 440
3 440 472 473
3 440 473 441
3 441 473 474
3 441 474 442
3 442 474 475
3 442 475 443
3 443 475 476
3 443 476 444
3 444 476 477
3 444 477 445
3 445 477 478
3 445 478 446
3 446 478 479
3 446 479 447
3 447 479 480
3 447 480 448
3 448 480 481
3 448 481 449
3 449 481 482
3 449 482 450
3 450 482 483
3 450 483 451
3 451 483 484
3 451 484 452
3 452 484 485
3 452 485 453
3 453 485 486
3 453 486 454
3 454 486 487
3 454 487 455
3 455 487 488
3 455 488 456
3 456 488 489
3 456 489 457
3 457 489 490
3 457 490 458
3 458 490 491
3 458 491 459
3 459 491 492
3 459 492 460
3 460 492 493
3 460 493 461
3 461 493 494
3 462 495 463
3 463 495 496
3 463 496 464
3 464 496 497
3 464 497 465
3 465 497 498
3 465 498 466
3 466 498 499
3 466 499 467
3 467 499 500
3 467 500 468
3 468 500 501
3 468 501 469
3 469 501 502
3 469 502 470
3 470 502 503
3 470 503 471
3 471 503 504
3 471 504 472
3 472 504 505
3 472 505 473
3 473 505 506
3 473 506 474
3 474 506 507
3 474 507 475
3 475 507 508
3 475 508 476
3 476 508 509
3 476 509 477
3 477 509 510
3 477 510 478
3 478 510 511
3 478 511 479
3 479 511 512
3 479 512 480
3 480 512 513
3 480 513 481
3 481 513 514
3 481 514 482
3 482 514 515
3 482 515 483
3 483 515 516
3 483 516 484
3 484 516 517
3 484 517 485
3 485 517 518
3 485 518 486
3 486 518 519
3 486 519 487
3 487 519 520
3 487 520 488
3 488 520 521
3 488 521 489
3 489 521 522
3 489 522 490
3 490 522 523
3 490 523 491
3 491 523 524
3 491 524 492
3 492 524 525
3 492 525 493
3 493 525 526
3 493 526 494
3 494 526 527
3 495 528 496
3 496 529 497
3 497 530 498
3 498 531 499
3 499 532 500
3 500 533 501
3 501 534 502
3 502 535 503
3 503 536 504
3 504 537 505
3 505 538 506
3 506 539 507
3 507 540 508
3 508 541 509
3 509 542 510
3 510 543 511
3 511 544 512
3 512 545 513
3 513 546 514
3 514 547 515
3 515 548 516
3 516 549 517
3 517 550 518
3 518 551 519
3 519 552 520
3 520 553 521
3 521 554 522
3 522 555 523
3 523 556 524
3 524 557 525
3 525 558 526
3 526 559 527
